<?xml version="1.0" standalone="no"?>
<svg viewBox="0 0 200 200" xmlns="http://www.w3.org/2000/svg">
  <path fill="#9EF0F0" d="M27,-50.7C31.6,-44.1,29.6,-30,29.7,-20.3C29.9,-10.6,32.2,-5.3,37.5,3.1C42.8,11.4,51.1,22.8,53.2,36.5C55.4,50.2,51.4,66.1,41.5,66.3C31.6,66.4,15.8,50.8,4.1,43.6C-7.6,36.5,-15.1,37.9,-23.9,37.1C-32.6,36.3,-42.5,33.3,-44.6,26.7C-46.7,20.2,-40.9,10.1,-46.5,-3.2C-52.1,-16.5,-69,-33.1,-67.4,-40.5C-65.9,-47.9,-45.8,-46.3,-31.5,-47.2C-17.2,-48.2,-8.6,-51.8,1.3,-54C11.2,-56.3,22.4,-57.2,27,-50.7Z" transform="translate(100 100)" />
</svg>
